# xmcd
#
# Track frame offsets: 
#        150
#        29269
#        39573
#        52662
#        63937
#        73149
#        85924
#        113360
#        138258
#        168420
#        200479
#        217676
#        234656
#        263492
#        280643
#        300634
#        318968
#
# Disc length: 4684 seconds
#
# Revision: 5
# Processed by: cddbd v1.5.2PL0 Copyright (c) Steve Scherf et al.
# Submitted via: ExactAudioCopyFreeDBPlugin 1.0
#
DISCID=da124a11
DTITLE=Ray Charles - Pure Genius:  The Complete Atlantic Recordings (1
DTITLE=952-1959) [Atlantic box set]
DYEAR=2005
DGENRE=Rhythm and Blues
TTITLE0=Bag's Guitar Blues (with Milt Jackson)
TTITLE1=Yes Indeed!
TTITLE2=I Had a Dream
TTITLE3=You Be My Baby
TTITLE4=Tell All the World About You
TTITLE5=My Bonnie
TTITLE6=Soul Meeting (with Milt Jackson)
TTITLE7=Hallelujah, I Love Her So (with Milt Jackson)
TTITLE8=Blue Genius (with Milt Jackson)
TTITLE9=X-Ray Blues (with Milt Jackson)
TTITLE10=Love on My Mind (with Milt Jackson)
TTITLE11=The Spirit-Feel (live 1958)
TTITLE12=Blues Waltz (live 1958)
TTITLE13=In a Little Spanish Town (live 1958)
TTITLE14=Sherry (live, 1958)
TTITLE15=(Night Time Is) The Right Time (live 1958)
TTITLE16=A Fool for You (live 1958)
EXTD=
EXTT0=
EXTT1=
EXTT2=
EXTT3=
EXTT4=
EXTT5=
EXTT6=
EXTT7=
EXTT8=
EXTT9=
EXTT10=
EXTT11=
EXTT12=
EXTT13=
EXTT14=
EXTT15=
EXTT16=
PLAYORDER=
